<?xml version="1.0" encoding="UTF-8" standalone="no"?>
<!DOCTYPE svg PUBLIC "-//W3C//DTD SVG 1.1//EN" "http://www.w3.org/Graphics/SVG/1.1/DTD/svg11.dtd">
<svg width="100%" height="100%" viewBox="-190 -190 380 380" version="1.1" xmlns="http://www.w3.org/2000/svg" xmlns:xlink="http://www.w3.org/1999/xlink" xml:space="preserve" xmlns:serif="http://www.serif.com/" style="fill-rule:evenodd;clip-rule:evenodd;stroke-linejoin:round;stroke-miterlimit:2;">
    <style>
        @keyframes pulse{
            from{
                r:66px;
                fill-opacity:0.3;
            }
            to{
                r:155px;
                fill-opacity:0;
            }
        }
        @keyframes wobble{
            0% {
                transform:rotate(0deg);
            }
            100% {
                transform:rotate(30deg);
            }
        }
        .pulsing-circle{
            animation-duration:8s;
            animation-iteration-count:infinite;
            animation-name:pulse;
            animation-timing-function:ease-in-out;
        }

        .wobbly-rays{
            animation-duration:60s;
            animation-iteration-count:infinite;
            animation-name:wobble;
            animation-timing-function:linear;
        }
    </style>
    <defs>
        <g id="ray" transform="scale(1.435,1.439)">
            <path d="M-2.06,-58.564C-13.98,-77.001 -19.5,-82.027 -7.16,-100.162C2.02,-115.11 -4.38,-122.784 -7.23,-127.054C-0.25,-122.08 12.85,-115.92 12.39,-92.529C11.94,-69.486 -0.65,-60.321 -3.06,-58.564Z" style="fill:rgb(255,184,0);"/>
            <clipPath id="_clip2">
                <path d="M-2.06,-58.564C-13.98,-77.001 -19.5,-82.027 -7.16,-100.162C2.02,-115.11 -4.38,-122.784 -7.23,-127.054C-0.25,-122.08 12.85,-115.92 12.39,-92.529C11.94,-69.486 -0.65,-60.321 -3.06,-58.564Z"/>
            </clipPath>
            <g clip-path="url(#_clip2)">
                <g>
                    <path transform="rotate(-5.5,0,0) scale(1.2,1)" d="M-2.177,-136.48C-0.2,-134.71 15.012,-121.11 11.937,-106.48C7.927,-87.39 -3.34,-88.56 3.496,-57.51C-29.386,-92.43 -7.367,-98.57 -2.062,-134.93" style="fill:rgb(255,168,30);"/>
                </g>
            </g>
        </g>
    </defs>
    <circle class="pulsing-circle" cx="0" cy="0" r="66.376" style="animation-delay:-10s;fill:rgb(255,184,0);fill-opacity:0.15;"/>
    <circle class="pulsing-circle" cx="0" cy="0" r="99.376" style="animation-delay:-12s;fill:rgb(255,184,0);fill-opacity:0.15;"/>
    <circle class="pulsing-circle" cx="0" cy="0" r="132.376" style="animation-delay:-14s;fill:rgb(255,184,0);fill-opacity:0.15;"/>
    <circle class="pulsing-circle" cx="0" cy="0" r="155.376" style="fill:rgb(255,184,0);fill-opacity:0;"/>
    <g>
        <circle cx="0" cy="0" r="76.376" style="fill:rgb(255,184,0);"/>
        <clipPath id="shade">
            <circle cx="0" cy="0" r="76.376"/>
        </clipPath>

        <g clip-path="url(#shade)">
            <g>
                <rect x="-90" y="-114" width="190" height="100" transform="rotate(-48,0,0)" style="fill:rgb(255,168,30);"/>
            </g>
        </g>
    </g>
    <g class="wobbly-rays"><use xlink:href="#ray" transform="rotate(30,0,0)"/></g>
    <g class="wobbly-rays"><use xlink:href="#ray" transform="rotate(60,0,0)"/></g>
    <g class="wobbly-rays"><use xlink:href="#ray" transform="rotate(90,0,0)"/></g>
    <g class="wobbly-rays"><use xlink:href="#ray" transform="rotate(120,0,0)"/></g>
    <g class="wobbly-rays"><use xlink:href="#ray" transform="rotate(150,0,0)"/></g>
    <g class="wobbly-rays"><use xlink:href="#ray" transform="rotate(180,0,0)"/></g>
    <g class="wobbly-rays"><use xlink:href="#ray" transform="rotate(210,0,0)"/></g>
    <g class="wobbly-rays"><use xlink:href="#ray" transform="rotate(240,0,0)"/></g>
    <g class="wobbly-rays"><use xlink:href="#ray" transform="rotate(270,0,0)"/></g>
    <g class="wobbly-rays"><use xlink:href="#ray" transform="rotate(300,0,0)"/></g>
    <g class="wobbly-rays"><use xlink:href="#ray" transform="rotate(330,0,0)"/></g>
    <g class="wobbly-rays"><use xlink:href="#ray"/></g>
</svg>
