<?xml version="1.0" encoding="UTF-8" standalone="no"?>
<!DOCTYPE svg PUBLIC "-//W3C//DTD SVG 1.1//EN" "http://www.w3.org/Graphics/SVG/1.1/DTD/svg11.dtd">
<svg width="100%" height="100%" viewBox="0 0 500 500" version="1.1" xmlns="http://www.w3.org/2000/svg" xmlns:xlink="http://www.w3.org/1999/xlink" xml:space="preserve" xmlns:serif="http://www.serif.com/" style="fill-rule:evenodd;clip-rule:evenodd;stroke-linejoin:round;stroke-miterlimit:2;">
    <style>
        @keyframes pulse{
            from{
                r:16;
                fill-opacity:0.3;
            }
            to{
                r:65;
                fill-opacity:0;
            }
        }
        .pulsing-circle{
            animation-duration:8s;
            animation-iteration-count:infinite;
            animation-name:pulse;
        }
    </style>
    <g transform="matrix(3.15768,0,0,3.15768,-5076.73,-821.105)">
        <circle class="pulsing-circle" cx="1687.1" cy="339.304" r="46.376" style="animation-delay:-10s;fill:rgb(255,184,0);fill-opacity:0.15;"/>
    </g>
    <g transform="matrix(3.15768,0,0,3.15768,-5076.73,-821.105)">
        <circle class="pulsing-circle" cx="1687.1" cy="339.304" r="46.376" style="animation-delay:-12s;fill:rgb(255,184,0);fill-opacity:0.15;"/>
    </g>
    <g transform="matrix(3.15768,0,0,3.15768,-5076.73,-821.105)">
        <circle class="pulsing-circle" cx="1687.1" cy="339.304" r="46.376" style="animation-delay:-14s;fill:rgb(255,184,0);fill-opacity:0.15;"/>
    </g>
    <g transform="matrix(3.15768,0,0,3.15768,-5076.73,-821.105)">
        <circle class="pulsing-circle" cx="1687.1" cy="339.304" r="46.376" style="fill:rgb(255,184,0);fill-opacity:0.15;"/>
    </g>
    <g id="Layer1">
    </g>
    <g transform="matrix(1.44641,0,0,1.44641,-2185.21,-251.645)">
        <circle cx="1687.1" cy="339.304" r="46.376" style="fill:rgb(255,184,0);"/>
        <clipPath id="_clip1">
            <circle cx="1687.1" cy="339.304" r="46.376"/>
        </clipPath>
        <g clip-path="url(#_clip1)">
            <g transform="matrix(1,0,0,1,0,2)">
                <path d="M1643.83,366.907L1711.52,291.825L1711.52,288.125L1681.93,288.125L1655.57,291.825L1643.83,305.374L1637.5,324.161L1637.5,344.276L1643.83,366.907Z" style="fill:rgb(0,168,30);"/>
            </g>
        </g>
    </g>
    <g transform="matrix(-9.15607e-16,-1.43941,1.43008,-1.33819e-15,-217.628,2661.37)">
        <path d="M1685.04,280.74C1673.12,262.303 1667.6,257.277 1679.94,239.142C1690.12,224.194 1683.72,216.52 1680.87,212.25C1687.85,217.224 1700.95,223.384 1700.49,246.775C1700.04,269.818 1687.45,278.983 1685.04,280.74Z" style="fill:rgb(255,184,0);"/>
        <clipPath id="_clip2">
            <path d="M1685.04,280.74C1673.12,262.303 1667.6,257.277 1679.94,239.142C1690.12,224.194 1683.72,216.52 1680.87,212.25C1687.85,217.224 1700.95,223.384 1700.49,246.775C1700.04,269.818 1687.45,278.983 1685.04,280.74Z"/>
        </clipPath>
        <g clip-path="url(#_clip2)">
            <g transform="matrix(-8.24823e-16,0.88721,-0.881456,-5.64352e-16,1979.66,-1164.82)">
                <path d="M1550.62,341.481C1552.39,339.504 1565.99,324.292 1580.62,327.367C1599.71,331.377 1598.54,342.644 1629.59,335.808C1594.67,368.69 1588.53,346.671 1552.17,341.366" style="fill:rgb(255,168,30);"/>
            </g>
        </g>
    </g>
    <g transform="matrix(0.719706,-1.24657,1.23848,0.715038,-1365.11,2099.44)">
        <path d="M1685.04,280.74C1673.12,262.303 1667.6,257.277 1679.94,239.142C1690.12,224.194 1683.72,216.52 1680.87,212.25C1687.85,217.224 1700.95,223.384 1700.49,246.775C1700.04,269.818 1687.45,278.983 1685.04,280.74Z" style="fill:rgb(255,184,0);"/>
        <clipPath id="_clip3">
            <path d="M1685.04,280.74C1673.12,262.303 1667.6,257.277 1679.94,239.142C1690.12,224.194 1683.72,216.52 1680.87,212.25C1687.85,217.224 1700.95,223.384 1700.49,246.775C1700.04,269.818 1687.45,278.983 1685.04,280.74Z"/>
        </clipPath>
        <g clip-path="url(#_clip3)">
            <g transform="matrix(-8.24823e-16,0.88721,-0.881456,-5.64352e-16,1979.66,-1164.82)">
                <path d="M1550.62,341.481C1552.39,339.504 1565.99,324.292 1580.62,327.367C1599.71,331.377 1598.54,342.644 1629.59,335.808C1594.67,368.69 1588.53,346.671 1552.17,341.366" style="fill:rgb(255,168,30);"/>
            </g>
        </g>
    </g>
    <g transform="matrix(1.24657,-0.719706,0.715038,1.23848,-2077.89,1039.07)">
        <path d="M1685.04,280.74C1673.12,262.303 1667.6,257.277 1679.94,239.142C1690.12,224.194 1683.72,216.52 1680.87,212.25C1687.85,217.224 1700.95,223.384 1700.49,246.775C1700.04,269.818 1687.45,278.983 1685.04,280.74Z" style="fill:rgb(255,184,0);"/>
        <clipPath id="_clip4">
            <path d="M1685.04,280.74C1673.12,262.303 1667.6,257.277 1679.94,239.142C1690.12,224.194 1683.72,216.52 1680.87,212.25C1687.85,217.224 1700.95,223.384 1700.49,246.775C1700.04,269.818 1687.45,278.983 1685.04,280.74Z"/>
        </clipPath>
        <g clip-path="url(#_clip4)">
            <g transform="matrix(-8.24823e-16,0.88721,-0.881456,-5.64352e-16,1979.66,-1164.82)">
                <path d="M1550.62,341.481C1552.39,339.504 1565.99,324.292 1580.62,327.367C1599.71,331.377 1598.54,342.644 1629.59,335.808C1594.67,368.69 1588.53,346.671 1552.17,341.366" style="fill:rgb(255,168,30);"/>
            </g>
        </g>
    </g>
    <g transform="matrix(1.43941,2.2538e-15,-1.97208e-15,1.43008,-2165,-235.643)">
        <path d="M1685.04,280.74C1673.12,262.303 1667.6,257.277 1679.94,239.142C1690.12,224.194 1683.72,216.52 1680.87,212.25C1687.85,217.224 1700.95,223.384 1700.49,246.775C1700.04,269.818 1687.45,278.983 1685.04,280.74Z" style="fill:rgb(255,184,0);"/>
        <clipPath id="_clip5">
            <path d="M1685.04,280.74C1673.12,262.303 1667.6,257.277 1679.94,239.142C1690.12,224.194 1683.72,216.52 1680.87,212.25C1687.85,217.224 1700.95,223.384 1700.49,246.775C1700.04,269.818 1687.45,278.983 1685.04,280.74Z"/>
        </clipPath>
        <g clip-path="url(#_clip5)">
            <g transform="matrix(-8.24823e-16,0.88721,-0.881456,-5.64352e-16,1979.66,-1164.82)">
                <path d="M1550.62,341.481C1552.39,339.504 1565.99,324.292 1580.62,327.367C1599.71,331.377 1598.54,342.644 1629.59,335.808C1594.67,368.69 1588.53,346.671 1552.17,341.366" style="fill:rgb(255,168,30);"/>
            </g>
        </g>
    </g>
    <g transform="matrix(1.24657,0.719706,-0.715038,1.23848,-1603.07,-1383.12)">
        <path d="M1685.04,280.74C1673.12,262.303 1667.6,257.277 1679.94,239.142C1690.12,224.194 1683.72,216.52 1680.87,212.25C1687.85,217.224 1700.95,223.384 1700.49,246.775C1700.04,269.818 1687.45,278.983 1685.04,280.74Z" style="fill:rgb(255,184,0);"/>
        <clipPath id="_clip6">
            <path d="M1685.04,280.74C1673.12,262.303 1667.6,257.277 1679.94,239.142C1690.12,224.194 1683.72,216.52 1680.87,212.25C1687.85,217.224 1700.95,223.384 1700.49,246.775C1700.04,269.818 1687.45,278.983 1685.04,280.74Z"/>
        </clipPath>
        <g clip-path="url(#_clip6)">
            <g transform="matrix(-8.24823e-16,0.88721,-0.881456,-5.64352e-16,1979.66,-1164.82)">
                <path d="M1550.62,341.481C1552.39,339.504 1565.99,324.292 1580.62,327.367C1599.71,331.377 1598.54,342.644 1629.59,335.808C1594.67,368.69 1588.53,346.671 1552.17,341.366" style="fill:rgb(255,193,30);"/>
            </g>
        </g>
    </g>
    <g transform="matrix(0.719706,1.24657,-1.23848,0.715038,-542.695,-2095.91)">
        <path d="M1685.04,280.74C1673.12,262.303 1667.6,257.277 1679.94,239.142C1690.12,224.194 1683.72,216.52 1680.87,212.25C1687.85,217.224 1700.95,223.384 1700.49,246.775C1700.04,269.818 1687.45,278.983 1685.04,280.74Z" style="fill:rgb(255,184,0);"/>
        <clipPath id="_clip7">
            <path d="M1685.04,280.74C1673.12,262.303 1667.6,257.277 1679.94,239.142C1690.12,224.194 1683.72,216.52 1680.87,212.25C1687.85,217.224 1700.95,223.384 1700.49,246.775C1700.04,269.818 1687.45,278.983 1685.04,280.74Z"/>
        </clipPath>
        <g clip-path="url(#_clip7)">
            <g transform="matrix(-8.24823e-16,0.88721,-0.881456,-5.64352e-16,1979.66,-1164.82)">
                <path d="M1550.62,341.481C1552.39,339.504 1565.99,324.292 1580.62,327.367C1599.71,331.377 1598.54,342.644 1629.59,335.808C1594.67,368.69 1588.53,346.671 1552.17,341.366" style="fill:rgb(255,193,30);"/>
            </g>
        </g>
    </g>
    <g transform="matrix(-5.56407e-15,1.43941,-1.43008,-5.21192e-15,732.014,-2183.01)">
        <path d="M1685.04,280.74C1673.12,262.303 1667.6,257.277 1679.94,239.142C1690.12,224.194 1683.72,216.52 1680.87,212.25C1687.85,217.224 1700.95,223.384 1700.49,246.775C1700.04,269.818 1687.45,278.983 1685.04,280.74Z" style="fill:rgb(255,184,0);"/>
        <clipPath id="_clip8">
            <path d="M1685.04,280.74C1673.12,262.303 1667.6,257.277 1679.94,239.142C1690.12,224.194 1683.72,216.52 1680.87,212.25C1687.85,217.224 1700.95,223.384 1700.49,246.775C1700.04,269.818 1687.45,278.983 1685.04,280.74Z"/>
        </clipPath>
        <g clip-path="url(#_clip8)">
            <g transform="matrix(-8.24823e-16,0.88721,-0.881456,-5.64352e-16,1979.66,-1164.82)">
                <path d="M1550.62,341.481C1552.39,339.504 1565.99,324.292 1580.62,327.367C1599.71,331.377 1598.54,342.644 1629.59,335.808C1594.67,368.69 1588.53,346.671 1552.17,341.366" style="fill:rgb(255,193,30);"/>
            </g>
        </g>
    </g>
    <g transform="matrix(-0.719706,1.24657,-1.23848,-0.715038,1879.49,-1621.09)">
        <path d="M1685.04,280.74C1673.12,262.303 1667.6,257.277 1679.94,239.142C1690.12,224.194 1683.72,216.52 1680.87,212.25C1687.85,217.224 1700.95,223.384 1700.49,246.775C1700.04,269.818 1687.45,278.983 1685.04,280.74Z" style="fill:rgb(255,184,0);"/>
        <clipPath id="_clip9">
            <path d="M1685.04,280.74C1673.12,262.303 1667.6,257.277 1679.94,239.142C1690.12,224.194 1683.72,216.52 1680.87,212.25C1687.85,217.224 1700.95,223.384 1700.49,246.775C1700.04,269.818 1687.45,278.983 1685.04,280.74Z"/>
        </clipPath>
        <g clip-path="url(#_clip9)">
            <g transform="matrix(-8.24823e-16,0.88721,-0.881456,-5.64352e-16,1979.66,-1164.82)">
                <path d="M1550.62,341.481C1552.39,339.504 1565.99,324.292 1580.62,327.367C1599.71,331.377 1598.54,342.644 1629.59,335.808C1594.67,368.69 1588.53,346.671 1552.17,341.366" style="fill:rgb(255,168,30);"/>
            </g>
        </g>
    </g>
    <g transform="matrix(-1.24657,0.719706,-0.715038,-1.23848,2592.28,-560.709)">
        <path d="M1685.04,280.74C1673.12,262.303 1667.6,257.277 1679.94,239.142C1690.12,224.194 1683.72,216.52 1680.87,212.25C1687.85,217.224 1700.95,223.384 1700.49,246.775C1700.04,269.818 1687.45,278.983 1685.04,280.74Z" style="fill:rgb(255,184,0);"/>
        <clipPath id="_clip10">
            <path d="M1685.04,280.74C1673.12,262.303 1667.6,257.277 1679.94,239.142C1690.12,224.194 1683.72,216.52 1680.87,212.25C1687.85,217.224 1700.95,223.384 1700.49,246.775C1700.04,269.818 1687.45,278.983 1685.04,280.74Z"/>
        </clipPath>
        <g clip-path="url(#_clip10)">
            <g transform="matrix(-8.24823e-16,0.88721,-0.881456,-5.64352e-16,1979.66,-1164.82)">
                <path d="M1550.62,341.481C1552.39,339.504 1565.99,324.292 1580.62,327.367C1599.71,331.377 1598.54,342.644 1629.59,335.808C1594.67,368.69 1588.53,346.671 1552.17,341.366" style="fill:rgb(255,168,30);"/>
            </g>
        </g>
    </g>
    <g transform="matrix(-1.43941,-8.87434e-15,8.66305e-15,-1.43008,2679.38,713.999)">
        <path d="M1685.04,280.74C1673.12,262.303 1667.6,257.277 1679.94,239.142C1690.12,224.194 1683.72,216.52 1680.87,212.25C1687.85,217.224 1700.95,223.384 1700.49,246.775C1700.04,269.818 1687.45,278.983 1685.04,280.74Z" style="fill:rgb(255,184,0);"/>
        <clipPath id="_clip11">
            <path d="M1685.04,280.74C1673.12,262.303 1667.6,257.277 1679.94,239.142C1690.12,224.194 1683.72,216.52 1680.87,212.25C1687.85,217.224 1700.95,223.384 1700.49,246.775C1700.04,269.818 1687.45,278.983 1685.04,280.74Z"/>
        </clipPath>
        <g clip-path="url(#_clip11)">
            <g transform="matrix(-8.24823e-16,0.88721,-0.881456,-5.64352e-16,1979.66,-1164.82)">
                <path d="M1550.62,341.481C1552.39,339.504 1565.99,324.292 1580.62,327.367C1599.71,331.377 1598.54,342.644 1629.59,335.808C1594.67,368.69 1588.53,346.671 1552.17,341.366" style="fill:rgb(255,168,30);"/>
            </g>
        </g>
    </g>
    <g transform="matrix(-1.24657,-0.719706,0.715038,-1.23848,2117.46,1861.48)">
        <path d="M1685.04,280.74C1673.12,262.303 1667.6,257.277 1679.94,239.142C1690.12,224.194 1683.72,216.52 1680.87,212.25C1687.85,217.224 1700.95,223.384 1700.49,246.775C1700.04,269.818 1687.45,278.983 1685.04,280.74Z" style="fill:rgb(255,184,0);"/>
        <clipPath id="_clip12">
            <path d="M1685.04,280.74C1673.12,262.303 1667.6,257.277 1679.94,239.142C1690.12,224.194 1683.72,216.52 1680.87,212.25C1687.85,217.224 1700.95,223.384 1700.49,246.775C1700.04,269.818 1687.45,278.983 1685.04,280.74Z"/>
        </clipPath>
        <g clip-path="url(#_clip12)">
            <g transform="matrix(-8.24823e-16,0.88721,-0.881456,-5.64352e-16,1979.66,-1164.82)">
                <path d="M1550.62,341.481C1552.39,339.504 1565.99,324.292 1580.62,327.367C1599.71,331.377 1598.54,342.644 1629.59,335.808C1594.67,368.69 1588.53,346.671 1552.17,341.366" style="fill:rgb(255,168,30);"/>
            </g>
        </g>
    </g>
    <g transform="matrix(-0.719706,-1.24657,1.23848,-0.715038,1057.08,2574.27)">
        <path d="M1685.04,280.74C1673.12,262.303 1667.6,257.277 1679.94,239.142C1690.12,224.194 1683.72,216.52 1680.87,212.25C1687.85,217.224 1700.95,223.384 1700.49,246.775C1700.04,269.818 1687.45,278.983 1685.04,280.74Z" style="fill:rgb(255,184,0);"/>
        <clipPath id="_clip13">
            <path d="M1685.04,280.74C1673.12,262.303 1667.6,257.277 1679.94,239.142C1690.12,224.194 1683.72,216.52 1680.87,212.25C1687.85,217.224 1700.95,223.384 1700.49,246.775C1700.04,269.818 1687.45,278.983 1685.04,280.74Z"/>
        </clipPath>
        <g clip-path="url(#_clip13)">
            <g transform="matrix(-8.24823e-16,0.88721,-0.881456,-5.64352e-16,1979.66,-1164.82)">
                <path d="M1550.62,341.481C1552.39,339.504 1565.99,324.292 1580.62,327.367C1599.71,331.377 1598.54,342.644 1629.59,335.808C1594.67,368.69 1588.53,346.671 1552.17,341.366" style="fill:rgb(255,168,30);"/>
            </g>
        </g>
    </g>
</svg>
